    <svg
                  xmlns="http://www.w3.org/2000/svg"
                  width="20"
                  height="20"
                  viewBox="0 0 20 20"
                  fill="none"
                >
                  <g clip-path="url(#clip0_1_42)">
                    <path
                      d="M14.5001 18.3333C11.0978 18.3289 7.83618 16.9754 5.43042 14.5696C3.02465 12.1638 1.67116 8.90219 1.66675 5.49993C1.66675 4.48327 2.07062 3.50825 2.78951 2.78936C3.50839 2.07047 4.48342 1.6666 5.50008 1.6666C5.71537 1.66496 5.93029 1.6845 6.14175 1.72493C6.34617 1.75518 6.54714 1.80542 6.74175 1.87493C6.87862 1.92296 7.00059 2.00588 7.09559 2.11549C7.19059 2.22511 7.25533 2.35762 7.28341 2.49993L8.42508 7.49993C8.45585 7.63565 8.45215 7.77692 8.4143 7.91084C8.37646 8.04475 8.30567 8.16706 8.20842 8.2666C8.10008 8.38327 8.09175 8.3916 7.06675 8.92493C7.88758 10.7256 9.32775 12.1717 11.1251 12.9999C11.6667 11.9666 11.6751 11.9583 11.7917 11.8499C11.8913 11.7527 12.0136 11.6819 12.1475 11.644C12.2814 11.6062 12.4227 11.6025 12.5584 11.6333L17.5584 12.7749C17.6962 12.8069 17.8235 12.8734 17.9285 12.9681C18.0335 13.0629 18.1126 13.1828 18.1584 13.3166C18.2288 13.5144 18.2817 13.7179 18.3167 13.9249C18.3503 14.1344 18.367 14.3462 18.3667 14.5583C18.3514 15.5706 17.9362 16.5357 17.2117 17.243C16.4873 17.9502 15.5125 18.3422 14.5001 18.3333Z"
                      fill="black"
                    />
                  </g>
                  <defs>
                    <clipPath id="clip0_1_42">
                      <rect width="20" height="20" fill="white" />
                    </clipPath>
                  </defs>
                </svg>