       <svg
              xmlns="http://www.w3.org/2000/svg"
              width="100%"
              height="100%"
              viewBox="0 0 120 104"
              fill="none"
            >
              <path
                d="M84.0795 79H13.9205C10.2299 78.9957 6.69165 77.5241 4.08199 74.9082C1.47234 72.2922 0.00433424 68.7455 0 65.046V22.954C0.00433424 19.2545 1.47234 15.7078 4.08199 13.0918C6.69165 10.4759 10.2299 9.00434 13.9205 9H84.0795C87.7701 9.00434 91.3084 10.4759 93.918 13.0918C96.5277 15.7078 97.9957 19.2545 98 22.954V65.046C97.9957 68.7455 96.5277 72.2922 93.918 74.9082C91.3084 77.5241 87.7701 78.9957 84.0795 79Z"
                fill="#CEE4E0"
              />
              <path
                d="M96.4275 90.645H26.8125C23.1505 90.6407 19.6398 89.1841 17.0503 86.5946C14.4609 84.0052 13.0043 80.4945 13 76.8325V35.1675C13.0043 31.5055 14.4609 27.9947 17.0503 25.4053C19.6398 22.8159 23.1505 21.3593 26.8125 21.355H96.4275C100.089 21.3593 103.6 22.8159 106.19 25.4053C108.779 27.9947 110.236 31.5055 110.24 35.1675V76.8325C110.236 80.4945 108.779 84.0052 106.19 86.5946C103.6 89.1841 100.089 90.6407 96.4275 90.645ZM26.8125 26.23C24.4421 26.23 22.1688 27.1716 20.4927 28.8477C18.8166 30.5238 17.875 32.7971 17.875 35.1675V76.8325C17.875 79.2029 18.8166 81.4761 20.4927 83.1522C22.1688 84.8284 24.4421 85.77 26.8125 85.77H96.4275C98.7979 85.77 101.071 84.8284 102.747 83.1522C104.423 81.4761 105.365 79.2029 105.365 76.8325V35.1675C105.365 32.7971 104.423 30.5238 102.747 28.8477C101.071 27.1716 98.7979 26.23 96.4275 26.23H26.8125Z"
                fill="#222222"
              />
              <path
                d="M62.3172 65.8801C59.3103 65.8848 56.3837 64.9093 53.981 63.1013L16.0372 34.4039C15.7691 34.2157 15.5417 33.9754 15.3686 33.6974C15.1954 33.4194 15.08 33.1094 15.0293 32.7858C14.9787 32.4622 14.9937 32.1317 15.0736 31.8141C15.1535 31.4965 15.2966 31.1982 15.4944 30.9371C15.6921 30.676 15.9404 30.4574 16.2245 30.2944C16.5086 30.1315 16.8226 30.0274 17.1478 29.9885C17.473 29.9495 17.8028 29.9766 18.1173 30.0679C18.4318 30.1592 18.7247 30.313 18.9785 30.5201L56.9222 59.2501C58.4804 60.4133 60.3728 61.0417 62.3172 61.0417C64.2617 61.0417 66.1541 60.4133 67.7122 59.2501L105.656 30.5201C105.91 30.313 106.203 30.1592 106.517 30.0679C106.832 29.9766 107.161 29.9495 107.487 29.9885C107.812 30.0274 108.126 30.1315 108.41 30.2944C108.694 30.4574 108.942 30.676 109.14 30.9371C109.338 31.1982 109.481 31.4965 109.561 31.8141C109.641 32.1317 109.656 32.4622 109.605 32.7858C109.554 33.1094 109.439 33.4194 109.266 33.6974C109.093 33.9754 108.865 34.2157 108.597 34.4039L70.6535 63.1013C68.2507 64.9093 65.3242 65.8848 62.3172 65.8801Z"
                fill="#222222"
              />
              <path
                d="M16.4411 83.8525C15.9467 83.8532 15.4638 83.7036 15.0564 83.4235C14.6491 83.1434 14.3365 82.746 14.1602 82.2842C13.984 81.8223 13.9523 81.3177 14.0694 80.8374C14.1865 80.3571 14.447 79.9238 14.8161 79.595L44.7161 52.9287C45.1988 52.4977 45.8329 52.2762 46.479 52.3127C47.125 52.3493 47.7301 52.641 48.1611 53.1237C48.5921 53.6064 48.8136 54.2405 48.7771 54.8866C48.7405 55.5327 48.4488 56.1377 47.9661 56.5687L18.0661 83.235C17.622 83.639 17.0414 83.8596 16.4411 83.8525ZM106.889 83.8525C106.288 83.8596 105.708 83.639 105.264 83.235L75.3636 56.5687C74.8809 56.1377 74.5892 55.5327 74.5526 54.8866C74.516 54.2405 74.7376 53.6064 75.1686 53.1237C75.5996 52.641 76.2046 52.3493 76.8507 52.3127C77.4968 52.2762 78.1309 52.4977 78.6136 52.9287L108.497 79.595C108.866 79.9238 109.127 80.3571 109.244 80.8374C109.361 81.3177 109.329 81.8223 109.153 82.2842C108.977 82.746 108.664 83.1434 108.257 83.4235C107.85 83.7036 107.367 83.8532 106.872 83.8525H106.889Z"
                fill="#222222"
              />
            </svg>