  <svg
              xmlns="http://www.w3.org/2000/svg"
              width="100%"
              height="100%"
              viewBox="0 0 146 146"
              fill="none"
            >
              <path
                d="M100 48C100 66.7777 76.4194 103.935 66 118.742C53.3871 103.935 32 66.7777 32 48C32 29.2223 47.2223 14 66 14C84.7777 14 100 29.2223 100 48Z"
                fill="#CEE4E0"
              />
              <path
                d="M72.4775 120.797L74.1507 122.761L75.6356 120.651C80.4187 113.854 88.2158 101.938 94.827 89.5494C98.1324 83.3554 101.16 77.0087 103.366 71.1022C105.558 65.232 107 59.6381 107 55C107 36.7746 92.2254 22 74 22C55.7746 22 41 36.7746 41 55C41 59.6074 42.3006 65.1806 44.3368 71.0573C46.3837 76.9649 49.2227 83.3154 52.4082 89.5211C58.7687 101.912 66.5998 113.897 72.4775 120.797Z"
                stroke="black"
                stroke-width="4"
              />
              <circle
                cx="74.5"
                cy="58.5"
                r="15.5"
                stroke="black"
                stroke-width="4"
              />
            </svg>